<?xml version="1.0" encoding="UTF-8"?>
<svg xmlns="http://www.w3.org/2000/svg" xmlns:xlink="http://www.w3.org/1999/xlink" viewBox="0 0 60 60" width="60px" height="60px">
<g id="surface1473821">
<path style=" stroke:none;fill-rule:nonzero;fill:rgb(100%,100%,100%);fill-opacity:1;" d="M 48 8 L 12 8 C 9.789062 8 8 9.789062 8 12 L 8 48 C 8 50.210938 9.789062 52 12 52 L 48 52 C 50.210938 52 52 50.210938 52 48 L 52 12 C 52 9.789062 50.207031 8 48 8 Z M 45.378906 26.949219 C 45.117188 26.972656 44.855469 26.988281 44.59375 26.988281 C 41.601562 26.988281 38.972656 25.453125 37.445312 23.125 C 37.445312 29.222656 37.445312 36.164062 37.445312 36.28125 C 37.445312 41.648438 33.089844 46.003906 27.722656 46.003906 C 22.355469 46 18 41.644531 18 36.277344 C 18 30.90625 22.355469 26.554688 27.722656 26.554688 C 27.925781 26.554688 28.125 26.574219 28.320312 26.585938 L 28.320312 31.378906 C 28.121094 31.355469 27.929688 31.316406 27.722656 31.316406 C 24.980469 31.316406 22.761719 33.539062 22.761719 36.28125 C 22.761719 39.019531 24.980469 41.242188 27.722656 41.242188 C 30.464844 41.242188 32.882812 39.082031 32.882812 36.34375 C 32.882812 36.230469 32.933594 14.003906 32.933594 14.003906 L 37.511719 14.003906 C 37.941406 18.097656 41.246094 21.328125 45.378906 21.625 Z M 45.378906 26.949219 "/>
</g>
</svg>
